Coordinates
version=1
nRows=7
nColumns=42
inDegrees=yes

Units are S.I. units (second, meters, Newtons, ...)
If the header above contains a line with 'inDegrees', this indicates whether rotational values are in degrees (yes) or radians (no).

endheader
time	pelvis_tilt	pelvis_list	pelvis_rotation	pelvis_tx	pelvis_ty	pelvis_tz	hip_flexion_r	hip_adduction_r	hip_rotation_r	knee_angle_r	knee_adduction_r	knee_angle_r_beta	ankle_angle_r	subtalar_angle_r	mtp_angle_r	hip_flexion_l	hip_adduction_l	hip_rotation_l	knee_angle_l	knee_adduction_l	knee_angle_l_beta	ankle_angle_l	subtalar_angle_l	mtp_angle_l	lumbar_extension	lumbar_bending	lumbar_rotation	arm_flex_r	arm_add_r	arm_rot_r	elbow_flex_r	pro_sup_r	wrist_flex_r	wrist_dev_r	arm_flex_l	arm_add_l	arm_rot_l	elbow_flex_l	pro_sup_l	wrist_flex_l	wrist_dev_l
      1.75000000	     12.48022315	      2.39007860	      2.17302550	      0.21239757	      0.93885066	     -0.24119170	     -4.44286257	      3.65856633	    -37.89872193	     22.24660691	    -10.76186378	      0.38827654	     28.43576166	     34.44382928	     -7.55867460	     14.68087618	      1.96294792	     -9.85186271	     50.58638387	     -5.50702696	      0.88289896	     15.23398413	     -0.80178269	     -7.55867460	    -42.99920777	     -0.79068256	      1.41967244	      7.19649717	    -12.05246534	      7.03371736	     40.48415309	     90.00000001	      0.00000000	      0.00000000	     -3.29184323	     -9.14252911	     11.63395162	     47.34117042	     90.00000001	      0.00000000	      0.00000000
      1.76000000	     12.51608532	      2.20615418	      2.26235391	      0.21791709	      0.93887182	     -0.24091265	     -5.34450600	      4.02762612	    -38.01357066	     21.35798816	    -10.42445932	      0.37276722	     28.36312252	     34.77492641	     -7.55739407	     15.21003025	      1.97483911	    -10.06594802	     48.68508821	     -5.65321999	      0.84971509	     15.00362680	      0.31054025	     -7.55739407	    -43.09767247	     -0.66800657	      1.57432950	      7.22322874	    -12.12876228	      7.15484618	     40.62042554	     90.00000001	      0.00000000	      0.00000000	     -3.30190931	     -9.01420556	     11.50464462	     47.30708948	     90.00000001	      0.00000000	      0.00000000
      1.77000000	     12.77522202	      1.98239604	      2.40798218	      0.22376080	      0.93930821	     -0.24080743	     -6.68826071	      4.46837450	    -37.98444767	     20.23518717	     -9.86605052	      0.35317064	     28.00656061	     35.17956770	     -7.55493343	     15.37336153	      1.91918481	    -10.78229182	     46.54704583	     -6.12376037	      0.81239921	     15.03474880	      2.27270374	     -7.55493343	    -43.41445967	     -0.44432169	      1.65696340	      7.23431115	    -12.24958079	      7.33341896	     40.84657388	     90.00000001	      0.00000000	      0.00000000	     -3.42543749	     -8.92674569	     11.33737031	     47.41195954	     90.00000001	      0.00000000	      0.00000000
      1.78000000	     12.74283562	      1.77677984	      2.55357565	      0.22922628	      0.93906126	     -0.24069274	     -7.49412385	      4.89230838	    -38.06670987	     19.34584233	     -9.58323645	      0.33764865	     28.03696602	     35.49778490	     -7.55387774	     15.89572399	      1.93383701	    -11.00140017	     44.48406579	     -6.23475678	      0.77639341	     14.53124602	      3.21335590	     -7.55387774	    -43.44539672	     -0.26840576	      1.73169161	      7.29189193	    -12.30598590	      7.43530179	     40.93295255	     90.00000001	      0.00000000	      0.00000000	     -3.44169814	     -8.81369588	     11.26862283	     47.23839390	     90.00000001	      0.00000000	      0.00000000
      1.79000000	     12.86140451	      1.59442296	      2.77645646	      0.23490838	      0.93903678	     -0.24084087	     -8.60089196	      5.30567556	    -38.07226962	     18.32301435	     -9.14729823	      0.31979693	     27.87915270	     35.89491406	     -7.55286364	     16.14201817	      2.00163192	    -11.50070318	     42.22388468	     -6.53609281	      0.73694581	     14.14623731	      4.45059475	     -7.55286364	    -43.62039244	     -0.04438569	      1.75521346	      7.29781870	    -12.37283792	      7.55897669	     41.05756304	     90.00000001	      0.00000000	      0.00000000	     -3.48833743	     -8.74057750	     11.16410015	     47.20986380	     90.00000001	      0.00000000	      0.00000000
      1.80000000	     13.19997066	      1.32110170	      2.99549365	      0.24088805	      0.93933028	     -0.24104625	    -10.15201233	      5.79281169	    -37.92539851	     17.08444105	     -8.37125200	      0.29817975	     27.41561139	     36.01495345	     -7.55057736	     16.10951583	      1.85726650	    -12.74716501	     39.91789737	     -7.14743841	      0.69669874	     14.25599619	      7.04709212	     -7.55057736	    -44.00194478	      0.27718734	      1.83858710	      7.30013651	    -12.50727245	      7.76335368	     41.25116133	     90.00000001	      0.00000000	      0.00000000	     -3.62100036	     -8.65808902	     11.09082781	     47.38720085	     90.00000001	      0.00000000	      0.00000000
      1.81000000	     13.30893681	      1.07872042	      3.22454778	      0.24663897	      0.93899287	     -0.24122832	    -11.25728713	      6.26575011	    -37.89071808	     16.06143215	     -7.88470922	      0.28032487	     27.29458508	     36.20468125	     -7.54875958	     16.35578977	      1.80045549	    -13.70592684	     37.69367751	     -7.56436600	      0.65787878	     14.07363754	      8.92977956	     -7.54875958	    -44.15228424	      0.54829155	      1.89962917	      7.29436378	    -12.57912664	      7.89917974	     41.33902481	     90.00000001	      0.00000000	      0.00000000	     -3.68048748	     -8.60478721	     11.04687111	     47.36450845	     90.00000001	      0.00000000	      0.00000000
